<?xml version="1.0" encoding="utf-8"?>
<!-- Generator: Adobe Illustrator 16.0.0, SVG Export Plug-In . SVG Version: 6.00 Build 0)  -->
<!DOCTYPE svg PUBLIC "-//W3C//DTD SVG 1.1//EN" "http://www.w3.org/Graphics/SVG/1.1/DTD/svg11.dtd">
<svg version="1.1" id="Layer_1" xmlns="http://www.w3.org/2000/svg" xmlns:xlink="http://www.w3.org/1999/xlink" x="0px" y="0px"
	 width="298.097px" height="46.433px" viewBox="0 0 298.097 46.433" enable-background="new 0 0 298.097 46.433"
	 xml:space="preserve">
<rect x="2" y="2" fill="#FFFFFF" width="146.792" height="42.432"/>
<path fill="#003764" d="M28.007,35.538h-1.991L15.26,6.867h4.37L27.06,27.7l7.15-20.833h4.236L28.007,35.538z"/>
<path fill="#003764" d="M56.531,25.171H41.322c0,2.419,0.677,4.281,2.029,5.578c1.196,1.135,2.73,1.699,4.609,1.699
	c2.142,0,3.927-0.609,5.359-1.834l1.576,2.646c-0.577,0.566-1.465,1.055-2.659,1.467c-1.497,0.543-3.164,0.811-5.003,0.811
	c-2.654,0-4.908-0.881-6.758-2.645c-2.064-1.943-3.094-4.559-3.094-7.84c0-3.411,1.059-6.146,3.17-8.206
	c1.894-1.838,4.133-2.761,6.72-2.761c3.008,0,5.364,0.832,7.071,2.491c1.657,1.596,2.483,3.713,2.483,6.353
	C56.827,23.741,56.729,24.491,56.531,25.171z M47.449,17.178c-1.667,0-3.066,0.528-4.195,1.583
	c-1.078,1.003-1.688,2.252-1.833,3.745h11.684c0-1.479-0.474-2.716-1.42-3.706C50.648,17.719,49.235,17.178,47.449,17.178z"/>
<path fill="#003764" d="M73.75,35.15V23.125c0-2.201-0.338-3.744-1.013-4.625c-0.676-0.883-1.811-1.323-3.399-1.323
	c-0.854,0-1.749,0.253-2.681,0.752c-0.934,0.502-1.647,1.119-2.146,1.853V35.15h-3.743V14.475h2.562l1.181,2.665
	c1.234-2.033,3.251-3.052,6.047-3.052c4.623,0,6.935,2.755,6.935,8.265V35.15H73.75z"/>
<path fill="#003764" d="M95.796,35.15V23.125c0-2.201-0.34-3.744-1.017-4.625c-0.677-0.883-1.808-1.323-3.399-1.323
	c-0.852,0-1.745,0.253-2.676,0.752c-0.934,0.502-1.651,1.119-2.149,1.853V35.15h-3.742V14.475h2.562l1.181,2.665
	c1.235-2.033,3.252-3.052,6.05-3.052c4.621,0,6.935,2.755,6.935,8.265V35.15H95.796z"/>
<path fill="#003764" d="M122.627,25.171h-15.208c0,2.419,0.676,4.281,2.029,5.578c1.194,1.135,2.732,1.699,4.606,1.699
	c2.144,0,3.928-0.609,5.362-1.834l1.576,2.646c-0.578,0.566-1.464,1.055-2.66,1.467c-1.496,0.543-3.166,0.811-5.002,0.811
	c-2.657,0-4.908-0.881-6.76-2.645c-2.062-1.943-3.094-4.559-3.094-7.84c0-3.411,1.058-6.146,3.174-8.206
	c1.891-1.838,4.128-2.761,6.715-2.761c3.009,0,5.368,0.832,7.075,2.491c1.653,1.596,2.481,3.713,2.481,6.353
	C122.923,23.741,122.824,24.491,122.627,25.171z M113.546,17.178c-1.67,0-3.068,0.528-4.196,1.583
	c-1.077,1.003-1.688,2.252-1.833,3.745h11.683c0-1.479-0.473-2.716-1.419-3.706C116.744,17.719,115.332,17.178,113.546,17.178z"/>
<path fill="#003764" d="M138.329,18.008c-0.815-0.554-1.635-0.831-2.462-0.831c-1.327,0-2.486,0.598-3.479,1.795
	c-0.993,1.196-1.487,2.638-1.487,4.323V35.15h-3.744V14.475h3.744v3.301c1.366-2.46,3.395-3.688,6.091-3.688
	c0.667,0,1.633,0.117,2.893,0.349L138.329,18.008z"/>
<path fill="#003764" d="M0,0v46.433h298.097V0H0z M2,2h146.792v42.433H2V2z"/>
<path fill="#FFFFFF" d="M161.918,33.939l1.429-3.524c0.729,0.523,1.64,0.959,2.729,1.311s2.062,0.527,2.927,0.527
	c1.525,0,2.749-0.408,3.675-1.227c0.927-0.818,1.391-1.859,1.391-3.125c0-0.943-0.261-1.824-0.774-2.637
	c-0.515-0.811-1.809-1.693-3.884-2.655l-2.309-1.054c-1.954-0.894-3.32-1.956-4.097-3.183c-0.775-1.226-1.163-2.7-1.163-4.427
	c0-2.095,0.754-3.833,2.27-5.214c1.512-1.379,3.454-2.07,5.826-2.07c3.171,0,5.375,0.505,6.613,1.513l-1.153,3.336
	c-0.521-0.37-1.319-0.727-2.387-1.072c-1.069-0.346-2.062-0.518-2.974-0.518c-1.33,0-2.377,0.371-3.139,1.112
	c-0.763,0.742-1.147,1.694-1.147,2.856c0,0.718,0.14,1.366,0.413,1.956c0.274,0.586,0.655,1.077,1.145,1.476
	c0.489,0.395,1.49,0.952,3.003,1.669l2.347,1.09c1.96,0.907,3.33,1.993,4.12,3.25c0.786,1.257,1.181,2.861,1.181,4.802
	c0,2.108-0.863,3.896-2.591,5.365c-1.729,1.475-4.041,2.205-6.935,2.205C165.89,35.702,163.717,35.116,161.918,33.939z"/>
<path fill="#FFFFFF" d="M195.095,35.226V22.323c0-1.534-0.387-2.742-1.154-3.623c-0.77-0.88-1.853-1.324-3.245-1.324
	c-0.9,0-1.806,0.258-2.713,0.777c-0.903,0.518-1.599,1.12-2.081,1.812v15.26h-3.718V6.278h3.718v10.678
	c0.494-0.755,1.294-1.385,2.396-1.89c1.104-0.502,2.239-0.754,3.414-0.754c2.217,0,3.954,0.715,5.214,2.146
	c1.257,1.432,1.885,3.384,1.885,5.866v12.902H195.095z"/>
<path fill="#FFFFFF" d="M205.874,35.226V17.76h-2.877v-3.069h6.592v20.534H205.874z M207.907,6.931c0.64,0,1.186,0.218,1.635,0.661
	c0.449,0.44,0.675,0.967,0.675,1.579c0,0.626-0.226,1.159-0.675,1.6c-0.449,0.443-0.995,0.663-1.635,0.663
	c-0.627,0-1.164-0.22-1.613-0.663c-0.451-0.441-0.675-0.974-0.675-1.6c0-0.626,0.223-1.157,0.665-1.591
	C206.727,7.147,207.269,6.931,207.907,6.931z"/>
<path fill="#FFFFFF" d="M219.214,34.093v9.183h-3.715V14.691h3.715v1.688c1.408-1.378,3.11-2.067,5.104-2.067
	c2.977,0,5.289,0.906,6.945,2.721c1.656,1.814,2.484,4.472,2.484,7.976c0,3.119-0.834,5.664-2.502,7.639
	c-1.671,1.974-4.08,2.959-7.238,2.959c-0.887,0-1.834-0.152-2.846-0.457C220.151,34.839,219.501,34.491,219.214,34.093z
	 M219.214,19.122v11.961c0.234,0.348,0.73,0.678,1.486,0.989c0.756,0.313,1.494,0.468,2.209,0.468c4.619,0,6.928-2.555,6.928-7.667
	c0-2.595-0.547-4.49-1.643-5.695c-1.098-1.203-2.852-1.801-5.266-1.801c-0.521,0-1.16,0.181-1.916,0.537
	C220.257,18.272,219.658,18.674,219.214,19.122z"/>
<path fill="#FFFFFF" d="M238.11,29.417V6.278h3.717v22.524c0,1.1,0.324,1.965,0.969,2.6c0.645,0.631,1.491,0.947,2.533,0.947v3.258
	C240.519,35.606,238.11,33.544,238.11,29.417z"/>
<path fill="#FFFFFF" d="M267.278,25.312h-15.102c0,2.405,0.67,4.252,2.012,5.545c1.188,1.123,2.715,1.684,4.578,1.684
	c2.127,0,3.9-0.605,5.322-1.818l1.566,2.627c-0.574,0.559-1.457,1.045-2.641,1.455c-1.488,0.535-3.146,0.803-4.971,0.803
	c-2.637,0-4.871-0.873-6.711-2.625c-2.045-1.93-3.07-4.523-3.07-7.783c0-3.386,1.049-6.101,3.15-8.148
	c1.877-1.826,4.1-2.738,6.672-2.738c2.984,0,5.326,0.822,7.021,2.471c1.643,1.585,2.465,3.686,2.465,6.307
	C267.571,23.894,267.474,24.636,267.278,25.312z M258.259,17.376c-1.656,0-3.045,0.524-4.166,1.572
	c-1.068,0.997-1.676,2.238-1.818,3.721h11.598c0-1.472-0.469-2.696-1.406-3.68C261.435,17.914,260.032,17.376,258.259,17.376z"/>
<path fill="#FFFFFF" d="M279.485,38.714c-0.484,1.304-1.496,2.391-3.041,3.258c-1.547,0.87-3.273,1.304-5.176,1.304v-3.258
	c1.551,0,2.883-0.356,3.99-1.063c1.107-0.709,1.664-1.576,1.664-2.596c0-1.127-0.205-2.236-0.607-3.328
	c-0.404-1.091-0.928-2.445-1.566-4.056l-5.672-14.283h3.793l6.162,15.875l5.539-15.875h3.793L279.485,38.714z"/>
</svg>
