<svg xmlns="http://www.w3.org/2000/svg" viewBox="508 257.2 665 139.458" width="665" height="139.458"><style><![CDATA[.B{font-family:Product Sans, Roboto, Helvetica Neue, Helvetica, Arial, sans-serif}]]></style><defs><style>@import url('https://fonts.googleapis.com/css?family=Product+Sans')</style><clipPath id="A"><path d="M508 257.2h665v139.458H508z"/></clipPath></defs><g clip-path="url(#A)"><path d="M721.97 311.734c9.474-5.472 21.593-2.222 27.068 7.252 1.98 3.432-1.982-3.432 0 0a19.82 19.82 0 0 1-7.256 27.069l-67.5 38.974c-9.478 5.472-21.597 2.222-27.07-7.252-1.982-3.432 1.983 3.432 0 0-5.47-9.478-2.222-21.597 7.252-27.07l67.505-38.974z" fill="#fbbc04"/><path d="M742.087 311.91a19.82 19.82 0 0 1 7.256 27.069c-1.983 3.432 1.978-3.433 0 0-5.472 9.478-17.595 12.727-27.07 7.252l-67.504-38.97a19.82 19.82 0 0 1-7.252-27.068c1.982-3.433-1.983 3.432 0 0 5.47-9.48 17.6-12.724 27.068-7.253l67.5 38.97z" fill="#0f9d58"/><path d="M585.413 272.428a19.82 19.82 0 0 1 27.068 7.256c1.983 3.433-1.982-3.432 0 0a19.82 19.82 0 0 1-7.252 27.069l-67.5 38.97a19.82 19.82 0 0 1-27.069-7.253c-1.982-3.432 1.98 3.433 0 0-5.475-9.478-2.226-21.597 7.252-27.068l67.5-38.975z" fill="#ea4335"/><path d="M605.23 350.4a19.82 19.82 0 0 1 7.252 27.069c-1.982 3.432 1.983-3.432 0 0a19.82 19.82 0 0 1-27.068 7.256l-67.5-38.975c-9.478-5.47-12.727-17.6-7.252-27.068 1.98-3.432-1.982 3.432 0 0a19.82 19.82 0 0 1 27.069-7.253l67.5 38.97z" fill="#4285f4"/><text transform="translate(784 311.296)" font-size="56" fill="#fff" class="B">GDG DevFest</text><text transform="translate(784 382.528)" font-size="56" fill="#fff" class="B">Season 2019</text></g></svg>